<mxfile host="app.diagrams.net" modified="2022-12-06T06:44:29.685Z" agent="5.0 (Windows NT 6.3; Win64; x64) AppleWebKit/537.36 (KHTML, like Gecko) Chrome/107.0.0.0 Safari/537.36" etag="yBRAaUhMpEmLN-QjqlVv" version="20.6.0" type="github">
  <diagram id="prtHgNgQTEPvFCAcTncT" name="Page-1">
    <mxGraphModel dx="1886" dy="607" grid="0" gridSize="10" guides="1" tooltips="1" connect="1" arrows="1" fold="1" page="1" pageScale="1" pageWidth="827" pageHeight="1169" math="0" shadow="0">
      <root>
        <mxCell id="0" />
        <mxCell id="1" parent="0" />
        <mxCell id="dNxyNK7c78bLwvsdeMH5-11" value="" style="swimlane;html=1;startSize=20;horizontal=1;containerType=tree;glass=0;" parent="1" vertex="1">
          <mxGeometry x="240" y="80" width="1870" height="360" as="geometry" />
        </mxCell>
        <mxCell id="FReDGIjetmC7sDtpQ-uE-145" style="edgeStyle=orthogonalEdgeStyle;rounded=0;orthogonalLoop=1;jettySize=auto;html=1;fontSize=12;" edge="1" parent="dNxyNK7c78bLwvsdeMH5-11" source="FReDGIjetmC7sDtpQ-uE-106" target="FReDGIjetmC7sDtpQ-uE-109">
          <mxGeometry relative="1" as="geometry" />
        </mxCell>
        <mxCell id="FReDGIjetmC7sDtpQ-uE-106" value="&lt;span style=&quot;line-height: 107%; font-family: &amp;quot;B Nazanin&amp;quot;;&quot; dir=&quot;RTL&quot; lang=&quot;FA&quot;&gt;&lt;font style=&quot;font-size: 18px;&quot;&gt;نقش&lt;br&gt;فیلم&amp;nbsp;&lt;/font&gt;&lt;/span&gt;" style="rounded=1;whiteSpace=wrap;html=1;fontSize=10;" vertex="1" parent="dNxyNK7c78bLwvsdeMH5-11">
          <mxGeometry x="750" y="40" width="120" height="40" as="geometry" />
        </mxCell>
        <mxCell id="FReDGIjetmC7sDtpQ-uE-109" value="&lt;span dir=&quot;RTL&quot; lang=&quot;FA&quot;&gt;&lt;font style=&quot;font-size: 18px;&quot;&gt;دکوفویل&amp;nbsp;&lt;/font&gt;&lt;/span&gt;" style="rounded=1;whiteSpace=wrap;html=1;fontSize=10;" vertex="1" parent="dNxyNK7c78bLwvsdeMH5-11">
          <mxGeometry x="750" y="110" width="120" height="40" as="geometry" />
        </mxCell>
        <mxCell id="FReDGIjetmC7sDtpQ-uE-113" style="edgeStyle=orthogonalEdgeStyle;rounded=0;orthogonalLoop=1;jettySize=auto;html=1;fontSize=12;" edge="1" target="FReDGIjetmC7sDtpQ-uE-114" source="FReDGIjetmC7sDtpQ-uE-109" parent="dNxyNK7c78bLwvsdeMH5-11">
          <mxGeometry relative="1" as="geometry">
            <mxPoint x="660" y="160" as="sourcePoint" />
            <Array as="points">
              <mxPoint x="810" y="180" />
              <mxPoint x="340" y="180" />
            </Array>
          </mxGeometry>
        </mxCell>
        <mxCell id="FReDGIjetmC7sDtpQ-uE-114" value="&lt;span style=&quot;line-height: 107%; font-family: &amp;quot;B Nazanin&amp;quot;;&quot; dir=&quot;RTL&quot; lang=&quot;FA&quot;&gt;&lt;font style=&quot;font-size: 18px;&quot;&gt;نیمه&lt;br&gt;ساخته&lt;/font&gt;&lt;/span&gt;" style="rounded=1;whiteSpace=wrap;html=1;fontSize=10;" vertex="1" parent="dNxyNK7c78bLwvsdeMH5-11">
          <mxGeometry x="280" y="210" width="120" height="40" as="geometry" />
        </mxCell>
        <mxCell id="FReDGIjetmC7sDtpQ-uE-116" style="edgeStyle=orthogonalEdgeStyle;rounded=0;orthogonalLoop=1;jettySize=auto;html=1;fontSize=12;" edge="1" target="FReDGIjetmC7sDtpQ-uE-117" source="FReDGIjetmC7sDtpQ-uE-109" parent="dNxyNK7c78bLwvsdeMH5-11">
          <mxGeometry relative="1" as="geometry">
            <mxPoint x="660" y="160" as="sourcePoint" />
            <Array as="points">
              <mxPoint x="810" y="180" />
              <mxPoint x="470" y="180" />
            </Array>
          </mxGeometry>
        </mxCell>
        <mxCell id="FReDGIjetmC7sDtpQ-uE-117" value="&lt;span style=&quot;line-height: 107%; font-family: &amp;quot;B Nazanin&amp;quot;;&quot; dir=&quot;RTL&quot; lang=&quot;FA&quot;&gt;&lt;font style=&quot;font-size: 18px;&quot;&gt;آشپزخانه&lt;/font&gt;&lt;/span&gt;" style="rounded=1;whiteSpace=wrap;html=1;fontSize=10;" vertex="1" parent="dNxyNK7c78bLwvsdeMH5-11">
          <mxGeometry x="410" y="210" width="120" height="40" as="geometry" />
        </mxCell>
        <mxCell id="FReDGIjetmC7sDtpQ-uE-118" style="edgeStyle=orthogonalEdgeStyle;rounded=0;orthogonalLoop=1;jettySize=auto;html=1;fontSize=12;" edge="1" target="FReDGIjetmC7sDtpQ-uE-119" source="FReDGIjetmC7sDtpQ-uE-109" parent="dNxyNK7c78bLwvsdeMH5-11">
          <mxGeometry relative="1" as="geometry">
            <mxPoint x="660" y="160" as="sourcePoint" />
            <Array as="points">
              <mxPoint x="810" y="180" />
              <mxPoint x="600" y="180" />
            </Array>
          </mxGeometry>
        </mxCell>
        <mxCell id="FReDGIjetmC7sDtpQ-uE-120" style="edgeStyle=orthogonalEdgeStyle;rounded=0;orthogonalLoop=1;jettySize=auto;html=1;fontSize=12;" edge="1" target="FReDGIjetmC7sDtpQ-uE-121" source="FReDGIjetmC7sDtpQ-uE-109" parent="dNxyNK7c78bLwvsdeMH5-11">
          <mxGeometry relative="1" as="geometry">
            <mxPoint x="660" y="160" as="sourcePoint" />
            <Array as="points">
              <mxPoint x="660" y="180" />
              <mxPoint x="300" y="180" />
            </Array>
          </mxGeometry>
        </mxCell>
        <mxCell id="FReDGIjetmC7sDtpQ-uE-121" value="&lt;span style=&quot;line-height: 107%; font-family: &amp;quot;B Nazanin&amp;quot;;&quot; dir=&quot;RTL&quot; lang=&quot;FA&quot;&gt;&lt;font style=&quot;font-size: 18px;&quot;&gt;سایر&lt;br&gt;موجودی ها&lt;/font&gt;&lt;/span&gt;" style="rounded=1;whiteSpace=wrap;html=1;fontSize=10;" vertex="1" parent="dNxyNK7c78bLwvsdeMH5-11">
          <mxGeometry x="670" y="210" width="120" height="40" as="geometry" />
        </mxCell>
        <mxCell id="FReDGIjetmC7sDtpQ-uE-122" style="edgeStyle=orthogonalEdgeStyle;rounded=0;orthogonalLoop=1;jettySize=auto;html=1;fontSize=12;" edge="1" target="FReDGIjetmC7sDtpQ-uE-123" source="FReDGIjetmC7sDtpQ-uE-109" parent="dNxyNK7c78bLwvsdeMH5-11">
          <mxGeometry relative="1" as="geometry">
            <mxPoint x="660" y="160" as="sourcePoint" />
            <Array as="points">
              <mxPoint x="660" y="180" />
              <mxPoint x="300" y="180" />
            </Array>
          </mxGeometry>
        </mxCell>
        <mxCell id="FReDGIjetmC7sDtpQ-uE-123" value="&lt;span style=&quot;line-height: 107%; font-family: &amp;quot;B Nazanin&amp;quot;;&quot; dir=&quot;RTL&quot; lang=&quot;FA&quot;&gt;&lt;font style=&quot;font-size: 18px;&quot;&gt;مواد&lt;br&gt;اولیه نامنطبق&lt;/font&gt;&lt;/span&gt;" style="rounded=1;whiteSpace=wrap;html=1;fontSize=10;" vertex="1" parent="dNxyNK7c78bLwvsdeMH5-11">
          <mxGeometry x="800" y="210" width="120" height="40" as="geometry" />
        </mxCell>
        <mxCell id="FReDGIjetmC7sDtpQ-uE-124" style="edgeStyle=orthogonalEdgeStyle;rounded=0;orthogonalLoop=1;jettySize=auto;html=1;fontSize=12;" edge="1" target="FReDGIjetmC7sDtpQ-uE-125" source="FReDGIjetmC7sDtpQ-uE-109" parent="dNxyNK7c78bLwvsdeMH5-11">
          <mxGeometry relative="1" as="geometry">
            <mxPoint x="660" y="160" as="sourcePoint" />
            <Array as="points">
              <mxPoint x="660" y="180" />
              <mxPoint x="300" y="180" />
            </Array>
          </mxGeometry>
        </mxCell>
        <mxCell id="FReDGIjetmC7sDtpQ-uE-125" value="&lt;span style=&quot;line-height: 107%; font-family: &amp;quot;B Nazanin&amp;quot;;&quot; dir=&quot;RTL&quot; lang=&quot;FA&quot;&gt;&lt;font style=&quot;font-size: 18px;&quot;&gt;سیلندرها&lt;/font&gt;&lt;/span&gt;" style="rounded=1;whiteSpace=wrap;html=1;fontSize=10;" vertex="1" parent="dNxyNK7c78bLwvsdeMH5-11">
          <mxGeometry x="930" y="210" width="120" height="40" as="geometry" />
        </mxCell>
        <mxCell id="FReDGIjetmC7sDtpQ-uE-126" style="edgeStyle=orthogonalEdgeStyle;rounded=0;orthogonalLoop=1;jettySize=auto;html=1;fontSize=12;" edge="1" target="FReDGIjetmC7sDtpQ-uE-127" source="FReDGIjetmC7sDtpQ-uE-109" parent="dNxyNK7c78bLwvsdeMH5-11">
          <mxGeometry relative="1" as="geometry">
            <mxPoint x="660" y="160" as="sourcePoint" />
            <Array as="points">
              <mxPoint x="660" y="180" />
              <mxPoint x="300" y="180" />
            </Array>
          </mxGeometry>
        </mxCell>
        <mxCell id="FReDGIjetmC7sDtpQ-uE-127" value="&lt;span style=&quot;line-height: 107%; font-family: &amp;quot;B Nazanin&amp;quot;;&quot; dir=&quot;RTL&quot; lang=&quot;FA&quot;&gt;&lt;font style=&quot;font-size: 18px;&quot;&gt;دپو&lt;br&gt;رنگ&lt;/font&gt;&lt;/span&gt;" style="rounded=1;whiteSpace=wrap;html=1;fontSize=10;" vertex="1" parent="dNxyNK7c78bLwvsdeMH5-11">
          <mxGeometry x="1060" y="210" width="120" height="40" as="geometry" />
        </mxCell>
        <mxCell id="FReDGIjetmC7sDtpQ-uE-132" style="edgeStyle=orthogonalEdgeStyle;rounded=0;orthogonalLoop=1;jettySize=auto;html=1;fontSize=12;" edge="1" target="FReDGIjetmC7sDtpQ-uE-133" source="FReDGIjetmC7sDtpQ-uE-109" parent="dNxyNK7c78bLwvsdeMH5-11">
          <mxGeometry relative="1" as="geometry">
            <mxPoint x="660" y="160" as="sourcePoint" />
            <Array as="points">
              <mxPoint x="660" y="180" />
              <mxPoint x="300" y="180" />
            </Array>
          </mxGeometry>
        </mxCell>
        <mxCell id="FReDGIjetmC7sDtpQ-uE-133" value="&lt;span style=&quot;line-height: 107%; font-family: &amp;quot;B Nazanin&amp;quot;;&quot; dir=&quot;RTL&quot; lang=&quot;FA&quot;&gt;&lt;font style=&quot;font-size: 18px;&quot;&gt;محصول نامنطبق&lt;/font&gt;&lt;/span&gt;" style="rounded=1;whiteSpace=wrap;html=1;fontSize=10;" vertex="1" parent="dNxyNK7c78bLwvsdeMH5-11">
          <mxGeometry x="1190" y="210" width="120" height="40" as="geometry" />
        </mxCell>
        <mxCell id="FReDGIjetmC7sDtpQ-uE-135" style="edgeStyle=orthogonalEdgeStyle;rounded=0;orthogonalLoop=1;jettySize=auto;html=1;fontSize=12;" edge="1" target="FReDGIjetmC7sDtpQ-uE-136" source="FReDGIjetmC7sDtpQ-uE-109" parent="dNxyNK7c78bLwvsdeMH5-11">
          <mxGeometry relative="1" as="geometry">
            <mxPoint x="660" y="160" as="sourcePoint" />
            <Array as="points">
              <mxPoint x="660" y="180" />
              <mxPoint x="300" y="180" />
            </Array>
          </mxGeometry>
        </mxCell>
        <mxCell id="FReDGIjetmC7sDtpQ-uE-136" value="&lt;span style=&quot;line-height: 107%; font-family: &amp;quot;B Nazanin&amp;quot;;&quot; dir=&quot;RTL&quot; lang=&quot;FA&quot;&gt;&lt;font style=&quot;font-size: 18px;&quot;&gt;بسته&lt;br&gt;بندی&lt;/font&gt;&lt;/span&gt;" style="rounded=1;whiteSpace=wrap;html=1;fontSize=10;" vertex="1" parent="dNxyNK7c78bLwvsdeMH5-11">
          <mxGeometry x="1320" y="210" width="120" height="40" as="geometry" />
        </mxCell>
        <mxCell id="FReDGIjetmC7sDtpQ-uE-139" value="" style="edgeStyle=orthogonalEdgeStyle;rounded=0;orthogonalLoop=1;jettySize=auto;html=1;" edge="1" source="FReDGIjetmC7sDtpQ-uE-109" target="FReDGIjetmC7sDtpQ-uE-140" parent="dNxyNK7c78bLwvsdeMH5-11">
          <mxGeometry relative="1" as="geometry">
            <Array as="points">
              <mxPoint x="810" y="180" />
              <mxPoint x="1510" y="180" />
            </Array>
          </mxGeometry>
        </mxCell>
        <mxCell id="FReDGIjetmC7sDtpQ-uE-140" value="&lt;span style=&quot;line-height: 107%; font-family: &amp;quot;B Nazanin&amp;quot;;&quot; dir=&quot;RTL&quot; lang=&quot;FA&quot;&gt;&lt;font style=&quot;font-size: 18px;&quot;&gt;مواد&lt;br&gt;اولیه&lt;/font&gt;&lt;/span&gt;" style="rounded=1;whiteSpace=wrap;html=1;fontSize=10;" vertex="1" parent="dNxyNK7c78bLwvsdeMH5-11">
          <mxGeometry x="1450" y="210" width="120" height="40" as="geometry" />
        </mxCell>
        <mxCell id="FReDGIjetmC7sDtpQ-uE-141" value="" style="edgeStyle=orthogonalEdgeStyle;rounded=0;orthogonalLoop=1;jettySize=auto;html=1;" edge="1" source="FReDGIjetmC7sDtpQ-uE-109" target="FReDGIjetmC7sDtpQ-uE-142" parent="dNxyNK7c78bLwvsdeMH5-11">
          <mxGeometry relative="1" as="geometry">
            <Array as="points">
              <mxPoint x="810" y="180" />
              <mxPoint x="1640" y="180" />
            </Array>
          </mxGeometry>
        </mxCell>
        <mxCell id="FReDGIjetmC7sDtpQ-uE-142" value="&lt;span style=&quot;line-height: 107%; font-family: &amp;quot;B Nazanin&amp;quot;;&quot; dir=&quot;RTL&quot; lang=&quot;FA&quot;&gt;&lt;font style=&quot;font-size: 18px;&quot;&gt;محصول&lt;/font&gt;&lt;/span&gt;" style="rounded=1;whiteSpace=wrap;html=1;fontSize=10;" vertex="1" parent="dNxyNK7c78bLwvsdeMH5-11">
          <mxGeometry x="1580" y="210" width="120" height="40" as="geometry" />
        </mxCell>
        <mxCell id="FReDGIjetmC7sDtpQ-uE-146" style="edgeStyle=orthogonalEdgeStyle;rounded=0;orthogonalLoop=1;jettySize=auto;html=1;fontSize=12;" edge="1" target="FReDGIjetmC7sDtpQ-uE-147" source="FReDGIjetmC7sDtpQ-uE-109" parent="dNxyNK7c78bLwvsdeMH5-11">
          <mxGeometry relative="1" as="geometry">
            <mxPoint x="1050" y="160" as="sourcePoint" />
            <Array as="points">
              <mxPoint x="810" y="180" />
              <mxPoint x="1770" y="180" />
            </Array>
          </mxGeometry>
        </mxCell>
        <mxCell id="FReDGIjetmC7sDtpQ-uE-147" value="&lt;span style=&quot;line-height: 107%; font-family: &amp;quot;B Nazanin&amp;quot;;&quot; dir=&quot;RTL&quot; lang=&quot;FA&quot;&gt;&lt;font style=&quot;font-size: 18px;&quot;&gt;ضایعات&lt;/font&gt;&lt;/span&gt;" style="rounded=1;whiteSpace=wrap;html=1;fontSize=10;" vertex="1" parent="dNxyNK7c78bLwvsdeMH5-11">
          <mxGeometry x="1710" y="210" width="120" height="40" as="geometry" />
        </mxCell>
        <mxCell id="FReDGIjetmC7sDtpQ-uE-119" value="&lt;span dir=&quot;RTL&quot; lang=&quot;FA&quot;&gt;&lt;font style=&quot;font-size: 18px;&quot;&gt;اموال&lt;/font&gt;&lt;/span&gt;" style="rounded=1;whiteSpace=wrap;html=1;fontSize=10;" vertex="1" parent="dNxyNK7c78bLwvsdeMH5-11">
          <mxGeometry x="540" y="210" width="120" height="40" as="geometry" />
        </mxCell>
      </root>
    </mxGraphModel>
  </diagram>
</mxfile>
